<svg width="14" height="22" viewBox="0 0 14 22" fill="none" xmlns="http://www.w3.org/2000/svg">
    <path
        d="M5.625 21.25V18.75H3.125V16.25H5.625V13.625C3.97917 13.3333 2.63021 12.5469 1.57812 11.2656C0.526042 9.98438 0 8.5 0 6.8125C0 4.91667 0.671875 3.30729 2.01562 1.98438C3.35938 0.661458 4.97917 0 6.875 0C8.77083 0 10.3906 0.661458 11.7344 1.98438C13.0781 3.30729 13.75 4.91667 13.75 6.8125C13.75 8.5 13.224 9.98438 12.1719 11.2656C11.1198 12.5469 9.77083 13.3333 8.125 13.625V16.25H10.625V18.75H8.125V21.25H5.625ZM6.875 11.25C8.08333 11.25 9.11458 10.8229 9.96875 9.96875C10.8229 9.11458 11.25 8.08333 11.25 6.875C11.25 5.66667 10.8229 4.63542 9.96875 3.78125C9.11458 2.92708 8.08333 2.5 6.875 2.5C5.66667 2.5 4.63542 2.92708 3.78125 3.78125C2.92708 4.63542 2.5 5.66667 2.5 6.875C2.5 8.08333 2.92708 9.11458 3.78125 9.96875C4.63542 10.8229 5.66667 11.25 6.875 11.25Z"
        fill="#94A3B8" />
</svg>