<svg width="104" height="104" viewBox="0 0 104 104" fill="none" xmlns="http://www.w3.org/2000/svg">
    <rect x="84.1714" y="80.1716" width="12" height="12" rx="6" fill="white" />
    <rect x="84.1714" y="80.1716" width="12" height="12" rx="6" stroke="#96B7EC" stroke-width="4" />
    <g filter="url(#filter0_dd_2_584)">
        <path
            d="M5.58579 4.41421C4.80474 3.63316 4.80474 2.36684 5.58579 1.58579C6.36684 0.804738 7.63317 0.804738 8.41421 1.58579L90.4386 83.6102C91.2197 84.3912 91.2197 85.6575 90.4386 86.4386C89.6575 87.2197 88.3912 87.2197 87.6102 86.4386L5.58579 4.41421Z"
            fill="white" shape-rendering="crispEdges" />
        <path
            d="M82.4416 86.44C82.4416 82.0217 86.0233 78.44 90.4416 78.44C94.8599 78.44 98.4416 82.0217 98.4416 86.44C98.4416 90.8583 94.8599 94.44 90.4416 94.44C86.0233 94.44 82.4416 90.8583 82.4416 86.44Z"
            fill="white" fill-opacity="0.01" shape-rendering="crispEdges" />
    </g>
    <defs>
        <filter id="filter0_dd_2_584" x="0" y="0" width="103.441" height="103.44"
            filterUnits="userSpaceOnUse" color-interpolation-filters="sRGB">
            <feFlood flood-opacity="0" result="BackgroundImageFix" />
            <feColorMatrix in="SourceAlpha" type="matrix"
                values="0 0 0 0 0 0 0 0 0 0 0 0 0 0 0 0 0 0 127 0" result="hardAlpha" />
            <feMorphology radius="2" operator="erode" in="SourceAlpha"
                result="effect1_dropShadow_2_584" />
            <feOffset dy="2" />
            <feGaussianBlur stdDeviation="2" />
            <feComposite in2="hardAlpha" operator="out" />
            <feColorMatrix type="matrix" values="0 0 0 0 0 0 0 0 0 0 0 0 0 0 0 0 0 0 0.1 0" />
            <feBlend mode="normal" in2="BackgroundImageFix" result="effect1_dropShadow_2_584" />
            <feColorMatrix in="SourceAlpha" type="matrix"
                values="0 0 0 0 0 0 0 0 0 0 0 0 0 0 0 0 0 0 127 0" result="hardAlpha" />
            <feMorphology radius="1" operator="erode" in="SourceAlpha"
                result="effect2_dropShadow_2_584" />
            <feOffset dy="4" />
            <feGaussianBlur stdDeviation="3" />
            <feComposite in2="hardAlpha" operator="out" />
            <feColorMatrix type="matrix" values="0 0 0 0 0 0 0 0 0 0 0 0 0 0 0 0 0 0 0.1 0" />
            <feBlend mode="normal" in2="effect1_dropShadow_2_584" result="effect2_dropShadow_2_584" />
            <feBlend mode="normal" in="SourceGraphic" in2="effect2_dropShadow_2_584" result="shape" />
        </filter>
    </defs>
</svg>