<svg width="24" height="24" viewBox="0 0 24 24" fill="none" xmlns="http://www.w3.org/2000/svg">
    <path
        d="M11.525 23.05C9.925 23.05 8.425 22.75 7.025 22.15C5.625 21.55 4.40417 20.7292 3.3625 19.6875C2.32083 18.6458 1.5 17.425 0.9 16.025C0.3 14.625 0 13.125 0 11.525C0 9.925 0.3 8.425 0.9 7.025C1.5 5.625 2.32083 4.40417 3.3625 3.3625C4.40417 2.32083 5.625 1.5 7.025 0.9C8.425 0.3 9.925 0 11.525 0C13.125 0 14.625 0.3 16.025 0.9C17.425 1.5 18.6458 2.32083 19.6875 3.3625C20.7292 4.40417 21.55 5.625 22.15 7.025C22.75 8.425 23.05 9.925 23.05 11.525C23.05 13.125 22.75 14.625 22.15 16.025C21.55 17.425 20.7292 18.6458 19.6875 19.6875C18.6458 20.7292 17.425 21.55 16.025 22.15C14.625 22.75 13.125 23.05 11.525 23.05ZM11.525 20.3C12.5583 20.3 13.5333 20.1292 14.45 19.7875C15.3667 19.4458 16.2 18.9833 16.95 18.4L15.8 17.25C15.2167 17.7 14.5583 18.05 13.825 18.3C13.0917 18.55 12.325 18.675 11.525 18.675C9.54167 18.675 7.85417 17.9792 6.4625 16.5875C5.07083 15.1958 4.375 13.5083 4.375 11.525C4.375 9.54167 5.07083 7.85417 6.4625 6.4625C7.85417 5.07083 9.54167 4.375 11.525 4.375C13.5083 4.375 15.1958 5.07083 16.5875 6.4625C17.9792 7.85417 18.675 9.54167 18.675 11.525C18.675 12.3417 18.5458 13.1208 18.2875 13.8625C18.0292 14.6042 17.675 15.275 17.225 15.875L18.35 17C18.95 16.25 19.425 15.4125 19.775 14.4875C20.125 13.5625 20.3 12.575 20.3 11.525C20.3 9.09167 19.4458 7.02083 17.7375 5.3125C16.0292 3.60417 13.9583 2.75 11.525 2.75C9.09167 2.75 7.02083 3.60417 5.3125 5.3125C3.60417 7.02083 2.75 9.09167 2.75 11.525C2.75 13.9583 3.60417 16.0292 5.3125 17.7375C7.02083 19.4458 9.09167 20.3 11.525 20.3ZM11.525 15.9C11.9583 15.9 12.3667 15.8417 12.75 15.725C13.1333 15.6083 13.4917 15.45 13.825 15.25L12.625 14.075C12.4583 14.1583 12.2792 14.2167 12.0875 14.25C11.8958 14.2833 11.7083 14.3 11.525 14.3C10.7583 14.3 10.1042 14.0292 9.5625 13.4875C9.02083 12.9458 8.75 12.2917 8.75 11.525C8.75 10.7583 9.02083 10.1042 9.5625 9.5625C10.1042 9.02083 10.7583 8.75 11.525 8.75C12.2917 8.75 12.9458 9.02083 13.4875 9.5625C14.0292 10.1042 14.3 10.7583 14.3 11.525C14.3 11.725 14.275 11.9208 14.225 12.1125C14.175 12.3042 14.1083 12.4917 14.025 12.675L15.225 13.85C15.4417 13.5167 15.6083 13.1542 15.725 12.7625C15.8417 12.3708 15.9 11.9583 15.9 11.525C15.9 10.325 15.4708 9.29583 14.6125 8.4375C13.7542 7.57917 12.725 7.15 11.525 7.15C10.325 7.15 9.29583 7.57917 8.4375 8.4375C7.57917 9.29583 7.15 10.325 7.15 11.525C7.15 12.725 7.57917 13.7542 8.4375 14.6125C9.29583 15.4708 10.325 15.9 11.525 15.9Z"
        fill="white" />
</svg>